<?xml version="1.0" encoding="utf-8"?>
<!-- Generator: Adobe Illustrator 27.6.1, SVG Export Plug-In . SVG Version: 6.00 Build 0)  -->
<svg version="1.1" id="Layer_1" xmlns="http://www.w3.org/2000/svg" xmlns:xlink="http://www.w3.org/1999/xlink" x="0px" y="0px"
	 viewBox="0 0 512 512" style="enable-background:new 0 0 512 512;" xml:space="preserve">
<style type="text/css">
	.st0{fill-rule:evenodd;clip-rule:evenodd;}
</style>
<g>
	<path d="M183.74,298.66c0.99-1.6,2.24-2.82,3.78-3.65c1.54-0.86,3.23-1.28,5.06-1.28c1.92,0,3.65,0.35,5.15,1.06
		c1.5,0.7,2.82,1.7,3.87,3.01c1.06,1.31,1.89,2.85,2.46,4.67c0.58,1.82,0.86,3.81,0.86,6.02c0,2.02-0.29,3.94-0.83,5.73
		c-0.58,1.79-1.38,3.36-2.43,4.7c-1.06,1.34-2.34,2.4-3.84,3.14c-1.5,0.77-3.17,1.15-5.02,1.15c-2.3,0-4.22-0.45-5.7-1.34
		c-1.47-0.9-2.59-2.02-3.36-3.39v4.13h-4.45v-37.98h4.45V298.66z M191.87,297.5c-2.46,0-4.45,0.93-5.98,2.82s-2.3,4.64-2.3,8.29
		c0,1.82,0.22,3.39,0.64,4.74c0.45,1.34,1.02,2.46,1.76,3.36c0.74,0.9,1.63,1.54,2.62,1.98c1.02,0.45,2.08,0.64,3.26,0.64
		c2.56,0,4.64-0.99,6.18-2.94c1.57-1.95,2.34-4.61,2.34-7.94c0-3.39-0.7-6.08-2.14-8.06C196.83,298.5,194.72,297.5,191.87,297.5
		L191.87,297.5z"/>
	<path d="M223.14,324.1c-0.38,1.18-0.83,2.27-1.31,3.3c-0.48,0.99-1.06,1.86-1.79,2.59s-1.6,1.28-2.62,1.7
		c-1.02,0.38-2.3,0.61-3.78,0.61c-1.22,0-2.27-0.1-3.14-0.32v-3.49c0.51,0.06,0.9,0.1,1.18,0.1h1.15c1.06,0,1.92-0.13,2.59-0.38
		c0.67-0.26,1.25-0.64,1.7-1.12c0.45-0.48,0.83-1.12,1.12-1.89c0.29-0.77,0.58-1.63,0.86-2.59h-1.47l-9.95-28.29h4.83l8.19,24.8
		l7.42-24.8h4.61L223.14,324.1z"/>
	<path d="M255.04,318.46h17.7v4.13h-22.21v-37.98h4.51L255.04,318.46z"/>
	<path d="M280,283.84c0.8,0,1.47,0.29,2.05,0.83c0.58,0.58,0.86,1.25,0.86,2.05c0,0.83-0.29,1.54-0.86,2.08
		c-0.58,0.58-1.28,0.83-2.05,0.83c-0.83,0-1.54-0.29-2.11-0.83c-0.58-0.54-0.86-1.25-0.86-2.08c0-0.8,0.29-1.47,0.86-2.05
		C278.46,284.13,279.17,283.84,280,283.84z M282.21,322.59h-4.45v-28.26h4.45V322.59z"/>
	<path d="M314.4,296.45c-1.06,0-1.92,0.1-2.62,0.26c-0.7,0.16-1.38,0.45-1.98,0.9c0.61,0.77,1.09,1.6,1.38,2.53
		c0.32,0.93,0.45,1.89,0.45,2.91c0,1.38-0.29,2.59-0.8,3.68c-0.54,1.09-1.31,2.02-2.3,2.78s-2.21,1.38-3.62,1.79
		c-1.41,0.42-2.98,0.61-4.74,0.61c-1.06,0-2.08-0.1-3.07-0.29c-0.99-0.19-1.95-0.48-2.85-0.9c-0.35,0.35-0.67,0.74-0.9,1.15
		s-0.35,0.83-0.35,1.22c0,0.93,0.29,1.63,0.9,2.11c0.61,0.48,1.57,0.7,2.94,0.7h5.92c2.02,0,3.74,0.22,5.15,0.61
		c1.41,0.42,2.56,0.99,3.42,1.7c0.86,0.7,1.5,1.54,1.89,2.53s0.61,2.02,0.61,3.1c0,2.53-1.15,4.58-3.49,6.11
		c-2.34,1.54-5.57,2.3-9.7,2.3c-2.37,0-4.35-0.19-5.98-0.61c-1.63-0.38-2.98-0.93-4-1.63c-1.02-0.7-1.76-1.5-2.21-2.4
		c-0.45-0.93-0.67-1.92-0.67-3.01c0-2.56,1.47-4.54,4.38-5.98c-2.05-0.99-3.1-2.53-3.1-4.61c0-1.7,0.96-3.23,2.88-4.61
		c-1.02-0.77-1.82-1.66-2.4-2.75c-0.58-1.06-0.86-2.27-0.86-3.65c0-1.22,0.22-2.4,0.7-3.52c0.48-1.12,1.18-2.11,2.14-2.94
		c0.96-0.86,2.14-1.54,3.55-2.05c1.41-0.51,3.04-0.77,4.93-0.77c1.54,0,2.88,0.16,4.06,0.45c1.18,0.32,2.27,0.74,3.2,1.28
		c1.47-1.98,3.84-2.98,7.04-2.98v3.97H314.4z M295.36,319.55c-1.34,0.74-2.24,1.44-2.72,2.18c-0.48,0.74-0.7,1.5-0.7,2.34
		c0,1.44,0.64,2.59,1.95,3.46c1.31,0.86,3.58,1.31,6.85,1.31c2.88,0,5.09-0.45,6.56-1.31s2.24-2.05,2.24-3.52
		c0-0.74-0.13-1.38-0.38-1.92c-0.26-0.54-0.67-1.02-1.31-1.41c-0.61-0.38-1.44-0.67-2.46-0.83c-1.02-0.19-2.34-0.26-3.87-0.26h-6.14
		V319.55z M300.19,297.09c-2.34,0-4.13,0.54-5.31,1.63c-1.18,1.09-1.79,2.46-1.79,4.19c0,1.76,0.61,3.17,1.86,4.19
		c1.22,1.02,2.94,1.5,5.15,1.5c2.3,0,4.1-0.51,5.31-1.5s1.86-2.4,1.86-4.19c0-1.73-0.58-3.14-1.7-4.19
		C304.38,297.63,302.59,297.09,300.19,297.09z"/>
	<path d="M323.55,298.66c0.93-1.57,2.18-2.75,3.68-3.65c1.54-0.86,3.2-1.31,5.06-1.31c3.17,0,5.6,0.96,7.23,2.88
		c1.63,1.92,2.46,4.58,2.46,7.97v18.02h-4.45v-16.93c0-1.18-0.1-2.3-0.29-3.3c-0.19-1.02-0.54-1.86-0.99-2.59
		c-0.48-0.7-1.09-1.25-1.89-1.66c-0.8-0.38-1.79-0.61-2.98-0.61c-1.09,0-2.11,0.22-3.04,0.64c-0.93,0.45-1.76,1.06-2.46,1.86
		c-0.7,0.8-1.28,1.76-1.7,2.94c-0.42,1.15-0.64,2.46-0.64,3.9v15.74h-4.45v-37.95h4.45L323.55,298.66z"/>
	<path d="M354.88,294.3h7.94v3.42h-7.94v17.31c0,1.38,0.29,2.46,0.86,3.23c0.58,0.77,1.7,1.15,3.3,1.15c0.83,0,1.63-0.06,2.43-0.22
		c0.8-0.13,1.5-0.32,2.11-0.48v3.58c-0.74,0.26-1.54,0.45-2.46,0.61s-1.92,0.26-2.94,0.26c-1.47,0-2.72-0.19-3.68-0.58
		c-0.99-0.38-1.76-0.9-2.4-1.57c-0.61-0.67-1.06-1.47-1.31-2.4c-0.26-0.93-0.38-1.92-0.38-3.01v-17.89h-4.03v-3.42h4.03v-7.55h4.45
		v7.55H354.88z"/>
	<path d="M378.85,293.73c2.5,0,4.64,0.38,6.46,1.12c1.82,0.74,3.36,1.76,4.67,3.01l-2.66,2.66c-1.09-0.96-2.34-1.73-3.74-2.27
		s-2.98-0.8-4.74-0.8c-2.05,0-3.65,0.38-4.74,1.15c-1.09,0.77-1.66,1.73-1.66,2.94c0,0.64,0.13,1.22,0.38,1.7
		c0.26,0.48,0.67,0.9,1.28,1.25c0.61,0.35,1.38,0.67,2.37,0.93c0.99,0.26,2.21,0.48,3.68,0.7c1.73,0.29,3.26,0.64,4.54,1.06
		c1.31,0.42,2.4,0.96,3.3,1.63c0.9,0.67,1.57,1.47,2.05,2.43c0.45,0.96,0.67,2.11,0.67,3.49c0,1.22-0.26,2.37-0.77,3.39
		c-0.51,1.02-1.28,1.92-2.27,2.69c-1.02,0.77-2.27,1.34-3.74,1.79s-3.2,0.64-5.15,0.64c-2.72,0-5.15-0.42-7.26-1.28
		c-2.14-0.86-3.9-2.05-5.31-3.55l2.88-2.82c1.15,1.28,2.56,2.24,4.19,2.91s3.46,0.99,5.41,0.99c2.56,0,4.45-0.45,5.66-1.31
		s1.82-1.98,1.82-3.3c0-0.67-0.13-1.28-0.35-1.82c-0.22-0.51-0.67-0.99-1.31-1.38c-0.64-0.38-1.5-0.74-2.59-1.06
		c-1.09-0.32-2.46-0.58-4.19-0.83c-3.39-0.54-5.89-1.47-7.42-2.78c-1.57-1.31-2.34-3.07-2.34-5.25c0-1.22,0.26-2.34,0.8-3.3
		c0.51-0.99,1.25-1.82,2.21-2.5c0.93-0.7,2.08-1.22,3.42-1.6C375.74,293.92,377.22,293.73,378.85,293.73L378.85,293.73z"/>
	<path d="M409.66,293.73c1.89,0,3.58,0.35,5.09,1.09s2.82,1.73,3.84,3.01c1.06,1.28,1.86,2.82,2.43,4.61
		c0.58,1.79,0.86,3.74,0.86,5.82c0,2.05-0.26,4-0.8,5.82c-0.54,1.82-1.34,3.42-2.4,4.74c-1.06,1.34-2.37,2.4-3.87,3.17
		c-1.5,0.77-3.26,1.15-5.22,1.15c-2.11,0-3.9-0.42-5.41-1.28c-1.5-0.86-2.66-1.98-3.49-3.46v12.86h-4.38V294.3h4.38v4.22
		c0.96-1.5,2.24-2.69,3.81-3.55C406.08,294.14,407.78,293.73,409.66,293.73L409.66,293.73z M408.96,297.5
		c-2.5,0-4.51,0.93-6.05,2.78c-1.54,1.86-2.3,4.58-2.3,8.16c0,1.89,0.22,3.52,0.64,4.9c0.45,1.38,1.02,2.5,1.76,3.39
		c0.74,0.9,1.6,1.54,2.59,1.98c0.99,0.45,2.08,0.64,3.23,0.64c2.56,0,4.64-0.99,6.18-2.94c1.57-1.95,2.34-4.67,2.34-8.19
		c0-1.6-0.19-3.04-0.54-4.35c-0.35-1.31-0.9-2.46-1.6-3.39c-0.7-0.93-1.6-1.66-2.62-2.21C411.55,297.79,410.34,297.5,408.96,297.5
		L408.96,297.5z"/>
	<path d="M439.52,293.73c2.02,0,3.81,0.38,5.38,1.15c1.57,0.77,2.88,1.82,3.94,3.14c1.06,1.31,1.89,2.88,2.4,4.67
		c0.54,1.79,0.8,3.68,0.8,5.66v1.02h-21.06c0.06,3.17,0.9,5.66,2.43,7.39c1.57,1.76,3.78,2.62,6.62,2.62c1.92,0,3.52-0.42,4.86-1.25
		c1.31-0.83,2.37-1.92,3.17-3.26l3.68,2.02c-1.28,1.98-2.88,3.55-4.86,4.64c-1.98,1.09-4.32,1.66-7.04,1.66
		c-2.18,0-4.1-0.38-5.79-1.15s-3.1-1.82-4.22-3.14c-1.15-1.31-1.98-2.88-2.59-4.7c-0.58-1.82-0.86-3.74-0.86-5.79s0.29-4,0.83-5.79
		c0.58-1.79,1.38-3.36,2.46-4.67c1.09-1.31,2.43-2.37,4.06-3.1C435.46,294.11,437.34,293.73,439.52,293.73z M439.39,297.41
		c-2.53,0-4.51,0.8-5.95,2.37s-2.24,3.65-2.4,6.21h16.38c-0.19-2.59-0.96-4.67-2.3-6.24S441.86,297.41,439.39,297.41z"/>
	<path d="M469.47,293.73c2.02,0,3.81,0.38,5.38,1.15c1.57,0.77,2.88,1.82,3.94,3.14c1.06,1.31,1.89,2.88,2.4,4.67
		c0.54,1.79,0.8,3.68,0.8,5.66v1.02h-21.06c0.06,3.17,0.9,5.66,2.43,7.39c1.57,1.76,3.78,2.62,6.62,2.62c1.92,0,3.52-0.42,4.86-1.25
		c1.31-0.83,2.37-1.92,3.17-3.26l3.68,2.02c-1.28,1.98-2.88,3.55-4.86,4.64c-1.98,1.09-4.32,1.66-7.04,1.66
		c-2.18,0-4.1-0.38-5.79-1.15s-3.1-1.82-4.22-3.14c-1.15-1.31-1.98-2.88-2.59-4.7c-0.58-1.82-0.86-3.74-0.86-5.79s0.29-4,0.83-5.79
		c0.58-1.79,1.38-3.36,2.46-4.67c1.09-1.31,2.43-2.37,4.06-3.1C465.41,294.11,467.3,293.73,469.47,293.73z M469.34,297.41
		c-2.53,0-4.51,0.8-5.95,2.37s-2.24,3.65-2.4,6.21h16.38c-0.19-2.59-0.96-4.67-2.3-6.24S471.81,297.41,469.34,297.41z"/>
	<path d="M512,322.59h-4.45v-4.35c-0.93,1.57-2.21,2.75-3.78,3.65c-1.57,0.86-3.3,1.31-5.18,1.31c-1.92,0-3.65-0.35-5.15-1.09
		c-1.5-0.74-2.82-1.73-3.84-3.01c-1.06-1.28-1.86-2.82-2.43-4.61c-0.54-1.79-0.83-3.74-0.83-5.89c0-2.14,0.29-4.1,0.86-5.92
		c0.58-1.82,1.41-3.39,2.46-4.74c1.06-1.34,2.37-2.37,3.9-3.1c1.54-0.74,3.26-1.12,5.18-1.12c2.14,0,3.94,0.42,5.38,1.28
		c1.44,0.86,2.59,1.95,3.42,3.33v-13.73H512L512,322.59z M499.42,297.5c-2.72,0-4.8,0.99-6.27,2.94c-1.47,1.95-2.21,4.64-2.21,8.03
		s0.7,6.08,2.08,8c1.38,1.92,3.49,2.91,6.34,2.91c2.46,0,4.48-0.93,6.02-2.75c1.57-1.86,2.34-4.61,2.34-8.26
		c0-1.82-0.22-3.39-0.64-4.74c-0.45-1.34-1.02-2.5-1.76-3.39c-0.74-0.9-1.63-1.57-2.62-2.05
		C501.66,297.76,500.58,297.5,499.42,297.5L499.42,297.5z"/>
	<g>
		<path class="st0" d="M110.43,179.71H32.51C14.56,179.71,0,194.27,0,212.22v77.95c0,17.95,14.56,32.51,32.51,32.51h77.95
			c17.95,0,32.51-14.56,32.51-32.51v-77.95C142.94,194.27,128.38,179.71,110.43,179.71L110.43,179.71z M89.38,218.18
			c3.55,0,6.46,2.88,6.46,6.46c0,3.55-2.88,6.46-6.46,6.46c-3.58,0-6.46-2.88-6.46-6.46S85.82,218.18,89.38,218.18z M89.38,236.38
			c3.55,0,6.46,2.88,6.46,6.46c0,3.55-2.88,6.46-6.46,6.46c-3.58,0-6.46-2.88-6.46-6.46S85.82,236.38,89.38,236.38z M71.2,218.18
			c3.55,0,6.46,2.88,6.46,6.46c0,3.55-2.88,6.46-6.46,6.46c-3.58,0-6.46-2.88-6.46-6.46S67.65,218.18,71.2,218.18z M71.2,236.38
			c3.55,0,6.46,2.88,6.46,6.46c0,3.55-2.88,6.46-6.46,6.46c-3.58,0-6.46-2.88-6.46-6.46S67.65,236.38,71.2,236.38z M53.02,218.18
			c3.55,0,6.46,2.88,6.46,6.46c0,3.55-2.88,6.46-6.46,6.46c-3.55,0-6.46-2.88-6.46-6.46S49.47,218.18,53.02,218.18z M53.02,236.38
			c3.55,0,6.46,2.88,6.46,6.46c0,3.55-2.88,6.46-6.46,6.46c-3.55,0-6.46-2.88-6.46-6.46S49.47,236.38,53.02,236.38z M35.55,304.51
			c-6.82,0-12.32-5.54-12.32-12.32c0-6.82,5.54-12.35,12.32-12.35c6.82,0,12.35,5.54,12.35,12.35S42.37,304.51,35.55,304.51z
			 M106.82,305.06c-6.82,0-12.32-5.54-12.32-12.32c0-6.82,5.54-12.35,12.32-12.35c6.82,0,12.35,5.54,12.35,12.35
			C119.17,299.55,113.63,305.06,106.82,305.06z M128.51,204.74l-12.74,47.49c-3.39,12.67-14.14,20.64-27.26,20.64H80.1
			c-2.78,0-6.82-1.5-8.48-3.07c-0.29-0.26-0.7-0.26-0.99,0c-1.66,1.57-5.7,3.07-8.48,3.07H52.9c-12.7,0-22.34-7.23-26.21-19.36
			l-10.85-33.98c-0.22-0.67-0.1-1.41,0.32-1.98c0.42-0.58,1.06-0.9,1.79-0.9h2.08c4.99,0.03,9.38,3.23,10.88,8l7.97,25.02
			c2.14,6.78,9.06,11.33,16.16,11.33h3.1c3.2,0,5.44-1.63,6.78-3.1c0.7-0.77,1.7-1.22,2.72-1.22h6.94c0.99,0,1.95,0.38,2.59,1.12
			c1.31,1.44,3.65,3.2,6.88,3.2h2.94c7.33,0,14.46-4.96,16.38-12.03l10.34-38.46c1.34-4.99,5.89-8.51,11.07-8.51h1.82
			c0.16,0,0.35,0.03,0.51,0.1C128.26,202.56,128.77,203.71,128.51,204.74z"/>
		<path class="st0" d="M106.82,288.32c-2.43,0-4.42,1.98-4.42,4.42c0,2.43,1.98,4.42,4.42,4.42s4.42-1.98,4.42-4.42
			C111.26,290.3,109.28,288.32,106.82,288.32z"/>
		<path class="st0" d="M35.55,287.74c-2.43,0-4.42,1.98-4.42,4.42s1.98,4.42,4.42,4.42c2.43,0,4.42-1.98,4.42-4.42
			S37.98,287.74,35.55,287.74z"/>
	</g>
	<path d="M311.3,249.18c-2.27,0-4.77-0.1-5.86,1.89c-3.46,6.24-11.36,8.22-17.86,8.22c-12.9,0-22.72-10.5-22.72-23.36
		s9.79-23.36,22.72-23.36c5.73,0,13.18,1.12,17.63,7.81c1.25,1.89,3.74,1.47,6.02,1.47c3.2,0,2.43-3.81,1.18-5.7
		c-6.43-9.76-17.06-11.81-24.8-11.81c-17.44,0-31.65,14.18-31.65,31.58s14.21,31.58,31.65,31.58c11.3,0,20.99-4.86,25.34-12.74
		C314.02,252.8,314.66,249.18,311.3,249.18L311.3,249.18z"/>
	<path d="M430.18,205.95c-2.27,0-4.13,0.99-4.13,3.26v54.53c0,2.27,1.86,2.98,4.13,2.98c2.27,0,4.13-0.7,4.13-2.98v-54.53
		C434.27,206.94,432.45,205.95,430.18,205.95L430.18,205.95z"/>
	<path d="M430.18,179.71c-2.88,0-5.22,2.34-5.22,5.22c0,2.88,2.34,5.22,5.22,5.22s5.22-2.34,5.22-5.22
		C435.39,182.05,433.06,179.71,430.18,179.71z"/>
	<path d="M406.85,206.27c-0.1,0-0.26,0-0.26,0s-3.87,0-5.06,2.94c-1.12,2.85-7.33,22.34-13.89,41.31c-0.22,0.61-0.48,1.22-0.7,1.82
		l-14.08-35.39c-0.64-1.5-1.57-2.66-2.78-3.33c-0.7-0.42-1.47-0.7-2.46-0.7c0,0,0,0-0.03,0c-0.03,0,0,0-0.03,0
		c-0.96,0-1.76,0.29-2.46,0.7c-1.22,0.67-2.14,1.82-2.78,3.33l-14.08,35.39c-0.22-0.61-0.48-1.22-0.7-1.82
		c-6.59-19.14-12.74-38.46-13.89-41.31c-1.18-2.94-5.22-2.94-5.31-2.94c-2.08,0.03-2.91,0.58-2.85,1.92c0,0.32,0,0.64,0.13,1.02
		c0.32,1.22,10.18,31.23,18.21,54.02c0.51,1.47,1.66,3.58,4.32,3.58c1.76,0,3.07-1.18,3.55-2.37l15.07-38.4
		c0.16-0.35,0.48-0.51,0.8-0.54c0.32,0,0.64,0.19,0.8,0.54l15.07,38.4c0.48,1.22,1.89,2.37,3.55,2.37c2.72,0,3.84-2.11,4.32-3.58
		c7.52-22.88,17.89-52.83,18.21-54.02c0.1-0.38,0.13-0.74,0.13-1.02C409.73,206.85,408.93,206.3,406.85,206.27L406.85,206.27z"/>
	<path d="M179.3,263.36c0,1.92,1.54,3.46,3.46,3.46h61.31c2.21,0,3.17-1.92,3.17-4.29c0-2.37-0.96-4.29-3.17-4.29h-53.98
		c-0.9,0-1.63-0.74-1.63-1.63v-30.56h47.2c2.21,0,3.17-1.92,3.17-4.29c0-2.37-0.96-4.29-3.17-4.29h-47.2v-27.46
		c0-0.96,0.77-1.73,1.73-1.73h53.92c2.21,0,3.17-1.92,3.17-4.29s-0.99-4.29-3.2-4.29h-61.31c-1.92,0-3.46,1.54-3.46,3.46V263.36z"/>
	<path d="M507.87,179.71c-2.27,0-4.13,0.99-4.13,3.26v31.68c-4.67-7.65-13.73-10.27-21.7-10.27c-17.44,0-31.62,14.18-31.62,31.55
		s14.18,31.55,31.62,31.55c6.82,0,17.41-3.39,21.7-10.82v6.94v0.03c0,0.1,0,0.13,0.03,0.13c0.1,2.11,1.89,2.82,4.1,2.82
		c2.27,0,4.13-0.7,4.13-2.98v-8.64V188.1v-5.12C512,180.7,510.14,179.71,507.87,179.71L507.87,179.71z M482.08,259.3
		c-12.9,0-22.59-10.46-22.59-23.36s9.7-23.36,22.59-23.36c7.49,0,21.57,4.48,21.7,21.15v3.78
		C503.65,253.95,488.83,259.3,482.08,259.3L482.08,259.3z"/>
</g>
</svg>
